<svg enable-background="new 0 0 17.4 841.9" viewBox="0 0 17.4 841.9" xmlns="http://www.w3.org/2000/svg"><g fill="#e4c590"><path d="m-.1 285.8c0-.4 0-.7 0-1.1.2.1.3.2.5.3l7.7-7.7c-1.2-1.2-2.3-2.3-3.5-3.5-1.3 1.3-2.8 2.8-4.2 4.2-.2-.1-.3-.2-.5-.3 0-.4 0-.8 0-1.2.2.1.3.3.5.3 1.2-1.2 2.4-2.4 3.6-3.6-1.1-1.1-2.3-2.3-3.5-3.5-.2.2-.3.3-.5.5 0-.7 0-1.4 0-2.1.1.1.2.1.4.2 0-.3 0-.4 0-.6 0-2 0-4.1 0-6.1 0-.3-.1-.5-.4-.7 0-.4 0-.7 0-1.1.1 0 .2.1.4.2 0-.2 0-.4 0-.5 0-2 0-4 0-6 0-.3 0-.6-.4-.8 0-.4 0-.7 0-1.1.1 0 .2.1.4.2 0-.2 0-.4 0-.6 0-2 0-4 0-6 0-.3 0-.7-.4-.8 0-.4 0-.7 0-1.1.1 0 .2.1.3.2 0-2.2 0-4.4 0-6.6-.2 0-.2.1-.3.2 0-.7 0-1.3 0-2 .2.2.4.4.6.5 1.2-1.2 2.4-2.4 3.5-3.5-1.3-1.3-2.7-2.7-4-4.2 0-.4 0-.7 0-1.1.1.1.3.2.4.3l4 4c.1.1.2.2.3.3 1.2-1.2 2.4-2.4 3.6-3.6-.3-.3-.7-.6-1-.9-2.4-2.4-4.9-4.9-7.3-7.3 0-.4 0-.7 0-1.1.2.1.3.2.4.3l8.2 8.2c.1.1.2.2.3.3 1.2-1.2 2.4-2.4 3.6-3.5-4.2-4.2-8.3-8.3-12.5-12.5 0-.4 0-.7 0-1.1.2.1.3.2.5.4 4.1 4.1 8.2 8.2 12.3 12.3.1.1.3.2.3.3l3.5-3.5c-5.3-5.3-10.7-10.7-16.1-16.1-.1.1-.3.2-.4.3 0-.4 0-.7 0-1.1 0-.1.1-.3.1-.4 0-2.2 0-4.4 0-6.5 0-.1 0-.3-.1-.4 0-.7 0-1.4 0-2.1.2.2.3.3.5.4 4-4 8-8 11.9-11.9-1.1-1.2-2.3-2.3-3.5-3.5-2.7 2.7-5.5 5.5-8.3 8.4-.2-.2-.3-.3-.5-.4 0-.4 0-.7 0-1.1.2.1.3.2.5.3l7.7-7.7c-1.2-1.2-2.3-2.3-3.5-3.5-1.3 1.3-2.8 2.8-4.2 4.2-.2-.1-.3-.2-.5-.3 0-.4 0-.8 0-1.2.2.1.3.3.5.3 1.2-1.2 2.4-2.4 3.6-3.6-1.1-1.1-2.3-2.3-3.5-3.5-.2.2-.3.3-.5.5 0-.7 0-1.4 0-2.1.1.1.2.1.4.2 0-.3 0-.4 0-.6 0-2 0-4.1 0-6.1 0-.3-.1-.5-.4-.7 0-.4 0-.7 0-1.1.1 0 .2.1.4.2 0-.2 0-.4 0-.5 0-2 0-4 0-6 0-.3 0-.6-.4-.8 0-.4 0-.7 0-1.1.1 0 .2.1.4.2 0-.2 0-.4 0-.6 0-2 0-4 0-6 0-.3 0-.7-.4-.8 0-.4 0-.7 0-1.1.1 0 .2.1.3.2 0-2.2 0-4.4 0-6.6-.2 0-.2.1-.3.2 0-.7 0-1.3 0-2 .2.2.4.4.6.5l3.5-3.5c-1.3-1.3-2.7-2.7-4-4.2 0-.4 0-.7 0-1.1.1.1.3.2.4.3l4 4c.1.1.2.2.3.3l3.6-3.6c-.3-.3-.7-.6-1-.9-2.4-2.4-4.9-4.9-7.3-7.3 0-.4 0-.7 0-1.1.2.1.3.2.4.3l8.2 8.2c.1.1.2.2.3.3l3.6-3.6c-4.2-4.2-8.4-8.4-12.6-12.5 0-.4 0-.7 0-1.1.2.1.3.2.5.4 4.1 4.1 8.2 8.2 12.3 12.3.1.1.3.2.3.3l3.5-3.5c-5.4-5.3-10.7-10.7-16.1-16-.1.1-.3.2-.4.3 0-.4 0-.7 0-1.1 0-.1.1-.3.1-.4 0-2.2 0-4.4 0-6.5 0-.1 0-.3-.1-.4 0-.7 0-1.4 0-2.1.2.2.3.3.5.4l11.9-11.9c-1.1-1.2-2.3-2.3-3.5-3.5-2.7 2.7-5.5 5.5-8.3 8.4-.2-.2-.3-.3-.5-.4 0-.4 0-.7 0-1.1.2.1.3.2.5.3 2.6-2.6 5.2-5.2 7.7-7.7-1.2-1.2-2.3-2.3-3.5-3.5-1.3 1.3-2.8 2.8-4.2 4.2-.2-.1-.3-.2-.5-.3 0-.4 0-.8 0-1.2.2.1.3.3.5.3 1.2-1.2 2.4-2.4 3.6-3.6-1.1-1.1-2.3-2.3-3.5-3.5-.2.2-.3.3-.5.5 0-.7 0-1.4 0-2.1.1.1.2.1.4.2 0-.3 0-.4 0-.6 0-2 0-4.1 0-6.1 0-.3-.1-.5-.4-.7 0-.4 0-.7 0-1.1.1 0 .2.1.4.2 0-.2 0-.4 0-.5 0-2 0-4 0-6 0-.3 0-.6-.4-.8 0-.4 0-.7 0-1.1.1 0 .2.1.4.2 0-.2 0-.4 0-.6 0-2 0-4 0-6 0-.3 0-.7-.4-.8 0-.4 0-.7 0-1.1.1 0 .2.1.3.2 0-2.2 0-4.4 0-6.6-.2 0-.2.1-.3.2 0-.7 0-1.3 0-2 .2.2.4.4.6.5l3.5-3.5c-1.3-1.3-2.7-2.7-4-4.2 0-.4 0-.7 0-1.1.1.1.3.2.4.3 1.3 1.3 2.7 2.7 4 4 .1.1.2.2.3.3l3.6-3.6c-.3-.3-.7-.6-1-.9-2.5-2.5-4.9-4.9-7.3-7.4 0-.4 0-.7 0-1.1-.8-.7-.6-.6-.5-.5 2.7 2.7 5.4 5.4 8.2 8.1l.3.3c1.2-1.2 2.4-2.4 3.6-3.5-4.2-4.2-8.4-8.3-12.5-12.4 0-.4 0-.7 0-1.1.2.1.3.2.5.4l12.3 12.3c.1.1.3.2.3.3l3.5-3.5c-5.5-5.4-10.8-10.8-16.2-16.1-.1 0-.3.1-.4.3 0-1.1 0-2.1 0-3.2h.9v1.6c0 .2.1.5.3.7.8.9 1.8 1.8 2.7 2.7 0 0 .1.1.3.2 0-1.8 0-3.5 0-5.2h.8v5.8c.1.2.2.4.3.6.9.9 1.8 1.8 2.8 2.7.1.1.2.1.3.2 0-1.3 0-2.5 0-3.6 0-1.9 0-3.8 0-5.7h.8v10c0 .2.1.4.2.5l2.7 2.7c.1.1.2.1.3.2 0-.3 0-.5 0-.7 0-4.1 0-8.2 0-12.3 0-.2 0-.4 0-.6h.7v.7 13.3c0 .2 0 .5.2.7 1.1 1.1 2.2 2.2 3.3 3.3v2.1c-1 1-1.9 2-2.9 3.1l2.9 2.9v1.1c-.7-.7-1.4-1.3-2.1-2-.5-.5-1-1-1.4-1.4-1.2 1.2-2.4 2.4-3.5 3.5 0 0 .1.1.2.2l6.6 6.6c.1.1.2.1.3.2v1.2c-.1-.1-.3-.2-.4-.3-2.3-2.3-4.6-4.6-6.9-6.9-.2-.2-.2-.3-.3-.4-1.3 1.3-2.4 2.5-3.6 3.6 0 0 .1.1.2.2l10.7 10.7c.1.1.2.2.3.2v1.2c-.2-.2-.3-.3-.4-.4-3.7-3.7-7.3-7.3-11-11-.1-.2-.2-.3-.3-.4-1.2 1.2-2.4 2.4-3.5 3.5l.3.3c3.7 3.7 7.3 7.3 11 11l4 4v1.1c-.1-.1-.3-.2-.4-.3-2.2-2.2-4.3-4.3-6.5-6.5-.1-.1-.2-.3-.2-.5 0 0-.1.1-.2.2v14.3s.1 0 .1.1c.1-.1.2-.3.3-.4 2.2-2.2 4.3-4.3 6.4-6.4.1-.1.3-.2.4-.3v1.1c-.2.2-.3.3-.4.4-2.5 2.5-5 5-7.5 7.5-2.4 2.4-4.7 4.7-7.1 7.1-.1.1-.2.3-.3.3 1.2 1.2 2.4 2.4 3.6 3.6.1-.2.2-.3.3-.5 3.7-3.7 7.3-7.4 11-11 .1-.1.3-.2.4-.3v1.2c-.1.1-.2.2-.3.3-3.5 3.5-7.1 7.1-10.6 10.6-.1.1-.2.2-.3.3 1.2 1.2 2.4 2.4 3.5 3.5.1-.1.2-.2.4-.3 2.3-2.3 4.6-4.6 6.9-6.9.1-.1.3-.2.4-.3v1.2c-.1.1-.2.2-.3.2-2.2 2.2-4.4 4.4-6.6 6.6-.1.1-.2.2-.2.2l3.5 3.5 2.7-2.7c.3-.3.5-.5.8-.7v1.1c-1 1-2 2-2.9 2.9 1 1 2 2 2.9 3v1.1c-.1-.1-.3-.2-.4-.3-.9-.9-1.8-1.8-2.7-2.7-.1-.1-.2-.2-.4-.3v.7 17.7 13.6c0 .2 0 .5.2.7l3.3 3.3v2.1c-1 1-1.9 2-2.9 3.1.9.9 1.9 1.9 2.9 2.9v1.1c-.7-.7-1.4-1.3-2.1-2-.5-.5-1-1-1.4-1.4-1.2 1.2-2.4 2.4-3.5 3.5 0 0 .1.1.2.2l6.6 6.6c.1.1.2.1.3.2v1.2c-.1-.1-.3-.2-.4-.3-2.3-2.3-4.6-4.6-6.9-6.9-.2-.2-.2-.3-.3-.4-1.3 1.3-2.4 2.5-3.6 3.6 0 0 .1.1.2.2l10.7 10.7c.1.1.2.2.3.2v1.2c-.2-.2-.3-.3-.4-.4-3.7-3.7-7.3-7.3-11-11-.2-.2-.3-.3-.3-.3-1.2 1.2-2.4 2.4-3.5 3.5.1.1.2.2.3.3 3.7 3.7 7.3 7.3 11 11 1.3 1.3 2.7 2.7 4 4v1.1c-.1-.1-.3-.2-.4-.3-2.2-2.2-4.3-4.3-6.5-6.5-.1-.1-.2-.3-.2-.5 0 0-.1.1-.2.2v14.3h.1c.1-.1.2-.2.3-.3 2.2-2.2 4.3-4.3 6.4-6.4.1-.1.3-.2.4-.3v1.1c-.2.2-.3.3-.4.4-2.5 2.5-5 5-7.5 7.5-2.4 2.4-4.7 4.7-7.1 7.1-.1.1-.2.3-.3.3l3.6 3.6c.1-.2.2-.3.3-.5 3.7-3.7 7.3-7.4 11-11 .1-.1.3-.2.4-.3v1.2c-.1.1-.2.2-.3.3-3.5 3.5-7.1 7.1-10.6 10.6-.1.1-.2.2-.3.3l3.5 3.5c.1-.1.2-.2.4-.3l6.9-6.9c.1-.1.3-.2.4-.3v1.2c-.1.1-.2.2-.3.2-2.2 2.2-4.4 4.4-6.6 6.6-.1.1-.2.2-.2.2 1.2 1.2 2.4 2.4 3.5 3.5l2.7-2.7c.3-.3.5-.5.8-.7v1.1c-1 1-2 2-2.9 2.9 1 1 2 2 2.9 3v1.1c-.1-.1-.3-.2-.4-.3-.9-.9-1.8-1.8-2.7-2.7-.1-.1-.2-.2-.4-.3v.7 17.7 13.6c0 .2 0 .5.2.7l3.3 3.3v2.1c-1 1-1.9 2-2.9 3.1l2.9 2.9v1.1c-.7-.7-1.4-1.3-2.1-2-.5-.5-1-1-1.4-1.4-1.2 1.2-2.4 2.4-3.5 3.5 0 0 .1.1.2.2 2.2 2.2 4.4 4.4 6.6 6.6.1.1.2.1.3.2v1.2c-.1-.1-.3-.2-.4-.3-2.3-2.3-4.6-4.6-6.9-6.9-.2-.2-.2-.3-.3-.4-1.3 1.3-2.4 2.5-3.6 3.6 0 0 .1.1.2.2 3.6 3.6 7.2 7.2 10.7 10.7.1.1.2.2.3.2v1.2c-.2-.2-.3-.3-.4-.4-3.7-3.7-7.3-7.3-11-11-.2-.2-.3-.3-.3-.3-1.2 1.2-2.4 2.4-3.5 3.5.1.1.2.2.3.3l11 11 4 4v1.1c-.1-.1-.3-.2-.4-.3-2.2-2.2-4.3-4.3-6.5-6.5-.1-.1-.2-.3-.2-.5 0 0-.1.1-.2.2v14.4l.4-.4 6.4-6.4c.1-.1.3-.2.4-.3v1.1c-.2.2-.3.3-.4.4-2.5 2.5-5 5-7.5 7.5-2.4 2.4-4.7 4.7-7.1 7.1-.1.1-.2.3-.3.3 1.2 1.2 2.4 2.4 3.6 3.6.1-.2.2-.3.3-.5 3.7-3.7 7.3-7.4 11-11 .1-.1.3-.2.4-.3v1.2c-.1.1-.2.2-.3.3-3.5 3.5-7.1 7.1-10.6 10.6-.1.1-.2.2-.3.3l3.5 3.5c.1-.1.2-.2.4-.3 2.3-2.3 4.6-4.6 6.9-6.9.1-.1.3-.2.4-.3v1.2c-.1.1-.2.2-.3.2-2.2 2.2-4.4 4.4-6.6 6.6-.1.1-.2.2-.2.2 1.2 1.2 2.4 2.4 3.5 3.5.9-.9 1.8-1.8 2.7-2.7.3-.3.5-.5.8-.7v1.1c-1 1-2 2-2.9 2.9 1 1 2 2 2.9 3v1.1c-.1-.1-.3-.2-.4-.3-.9-.9-1.8-1.8-2.7-2.7-.1-.1-.2-.2-.4-.3v.7 17.7 13.6c0 .2 0 .5.2.7 1.1 1.1 2.2 2.2 3.3 3.3v2.1c-1 1-1.9 2-2.9 3.1l2.9 2.9v1.1c-.7-.7-1.4-1.3-2.1-2-.5-.5-1-1-1.4-1.4-1.2 1.2-2.4 2.4-3.5 3.5 0 0 .1.1.2.2 2.2 2.2 4.4 4.4 6.6 6.6.1.1.2.1.3.2v1.2c-.1-.1-.3-.2-.4-.3-2.3-2.3-4.6-4.6-6.9-6.9-.2-.2-.2-.3-.3-.4-1.3 1.3-2.4 2.5-3.6 3.6 0 0 .1.1.2.2 3.6 3.6 7.2 7.2 10.7 10.7.1.1.2.2.3.2v1.2c-.2-.2-.3-.3-.4-.4-3.7-3.7-7.3-7.3-11-11-.2-.2-.3-.3-.3-.3-1.2 1.2-2.4 2.4-3.5 3.5.1.1.2.2.3.3 3.7 3.7 7.3 7.3 11 11 1.3 1.3 2.7 2.7 4 4v1.1c-.1-.1-.3-.2-.4-.3-2.2-2.2-4.3-4.3-6.5-6.5-.1-.1-.2-.3-.2-.5 0 0-.1.1-.2.2v14.3s.1 0 .1.1c.1-.1.2-.3.3-.4 2.2-2.2 4.3-4.3 6.4-6.4.1-.1.3-.2.4-.3v1.1c-.2.2-.3.3-.4.4-2.5 2.5-5 5-7.5 7.5-2.4 2.4-4.7 4.7-7.1 7.1-.1.1-.2.3-.3.3 1.2 1.2 2.4 2.4 3.6 3.6.1-.2.2-.3.3-.5 3.7-3.7 7.3-7.4 11-11 .1-.1.3-.2.4-.3v1.2c-.1.1-.2.2-.3.3-3.5 3.5-7.1 7.1-10.6 10.6-.1.1-.2.2-.3.3l3.5 3.5c.1-.1.2-.2.4-.3 2.3-2.3 4.6-4.6 6.9-6.9.1-.1.3-.2.4-.3v1.2c-.1.1-.2.2-.3.2-2.2 2.2-4.4 4.4-6.6 6.6-.1.1-.2.2-.2.2 1.2 1.2 2.4 2.4 3.5 3.5.9-.9 1.8-1.8 2.7-2.7.3-.3.5-.5.8-.7v1.1c-1 1-2 2-2.9 2.9 1 1 2 2 2.9 3v1.1c-.1-.1-.3-.2-.4-.3-.9-.9-1.8-1.8-2.7-2.7-.1-.1-.2-.2-.4-.3v.7 17.7 13.6c0 .2 0 .5.2.7 1.1 1.1 2.2 2.2 3.3 3.3v2.1c-1 1-1.9 2-2.9 3.1l2.9 2.9v1.1c-.7-.7-1.4-1.3-2.1-2-.5-.5-1-1-1.4-1.4-1.2 1.2-2.4 2.4-3.5 3.5 0 0 .1.1.2.2 2.2 2.2 4.4 4.4 6.6 6.6.1.1.2.1.3.2v1.2c-.1-.1-.3-.2-.4-.3-2.3-2.3-4.6-4.6-6.9-6.9-.2-.2-.2-.3-.3-.4-1.3 1.3-2.4 2.5-3.6 3.6 0 0 .1.1.2.2l10.7 10.7c.1.1.2.2.3.2v1.2c-.2-.2-.3-.3-.4-.4-3.7-3.7-7.3-7.3-11-11-.2-.2-.2-.3-.3-.4-1.3 1.3-2.4 2.4-3.7 3.7.1.1.2.2.3.3 2.6 2.6 5.2 5.2 7.7 7.7.1.1.2.3.3.4-.4 0-.8 0-1.2 0-.1-.1-.2-.3-.3-.4-.8-.8-1.6-1.6-2.4-2.4-.1-.2-.2-.3-.3-.5-.1 0-.2.1-.2.2v3.2c-.3 0-.5 0-.8 0 0-1.3 0-2.5 0-3.8 0-.2-.1-.5-.2-.6-1-1-1.9-2-2.9-2.9-.1-.1-.1-.1-.3-.2v.6 6.9c-.4 0-.8 0-1.2 0 0-.4 0-.8 0-1.3.1 0 .2.1.3.2 0-2.2 0-4.4 0-6.6-.2 0-.2.1-.3.2 0-.7 0-1.3 0-2 .2.2.4.4.6.5 1.2-1.2 2.4-2.4 3.5-3.5-1.3-1.3-2.7-2.7-4-4.2 0-.4 0-.7 0-1.1.1.1.3.2.4.3 1.3 1.3 2.7 2.7 4 4 .1.1.2.2.3.3 1.2-1.2 2.4-2.4 3.6-3.6-.3-.3-.7-.6-1-.9-2.4-2.4-4.9-4.9-7.3-7.3 0-.4 0-.7 0-1.1.2.1.3.2.4.3l8.2 8.2.3.3 3.6-3.6c-4.1-4.1-8.3-8.2-12.4-12.4 0-.4 0-.7 0-1.1.2.1.3.2.5.4l12.3 12.3c.1.1.3.2.3.3l3.5-3.5c-5.3-5.3-10.7-10.7-16.1-16.1-.1.1-.3.2-.4.3 0-.4 0-.7 0-1.1 0-.1.1-.3.1-.4 0-2.2 0-4.4 0-6.5 0-.1 0-.3-.1-.4 0-.7 0-1.4 0-2.1.2.2.3.3.5.4l11.9-11.9c-1.1-1.2-2.3-2.3-3.5-3.5-2.7 2.7-5.5 5.5-8.3 8.4-.2-.2-.3-.3-.5-.4 0-.4 0-.7 0-1.1.2.1.3.2.5.3l7.7-7.7c-1.2-1.2-2.3-2.3-3.5-3.5-1.3 1.3-2.8 2.8-4.2 4.2-.2-.1-.3-.2-.5-.3 0-.4 0-.8 0-1.2.2.1.3.3.5.3 1.2-1.2 2.4-2.4 3.6-3.6-1.1-1.1-2.3-2.3-3.5-3.5-.2.2-.3.3-.5.5 0-.7 0-1.4 0-2.1.1.1.2.1.4.2 0-.3 0-.4 0-.6 0-2 0-4.1 0-6.1 0-.3-.1-.5-.4-.7 0-.4 0-.7 0-1.1.1 0 .2.1.4.2 0-.2 0-.4 0-.5 0-2 0-4 0-6 0-.3 0-.6-.4-.8 0-.4 0-.7 0-1.1.1 0 .2.1.4.2 0-.2 0-.4 0-.6 0-2 0-4 0-6 0-.3 0-.7-.4-.8 0-.4 0-.7 0-1.1.1 0 .2.1.3.2 0-2.2 0-4.4 0-6.6-.2 0-.2.1-.3.2 0-.7 0-1.3 0-2 .2.2.4.4.6.5 1.2-1.2 2.4-2.4 3.5-3.5-1.3-1.3-2.7-2.7-4-4.2 0-.4 0-.7 0-1.1.1.1.3.2.4.3 1.3 1.3 2.7 2.7 4 4l.3.3c1.2-1.2 2.4-2.4 3.6-3.6-.3-.3-.7-.6-1-.9-2.4-2.4-4.9-4.9-7.3-7.3 0-.4 0-.7 0-1.1.2.1.3.2.4.3l8.2 8.2c.1.1.2.2.3.3 1.2-1.2 2.4-2.4 3.6-3.5-4.8-4-9-8.2-13.1-12.3 0-.4 0-.7 0-1.1.2.1.3.2.5.4 4.1 4.1 8.2 8.2 12.3 12.3.1.1.3.2.3.3 1.2-1.2 2.4-2.4 3.5-3.5-5.3-5.4-10.7-10.7-16.1-16.1-.1.1-.3.2-.4.3 0-.4 0-.7 0-1.1 0-.1.1-.3.1-.4 0-2.2 0-4.4 0-6.5 0-.1 0-.3-.1-.4 0-.7 0-1.4 0-2.1.2.2.3.3.5.4l11.9-11.9c-1.2-1.2-2.3-2.3-3.5-3.5-2.7 2.7-5.5 5.5-8.3 8.4-.2-1.4-.4-1.5-.5-1.7zm1.2 82c.1 0 .1 0 .2-.1l3-3c.1-.1.2-.3.2-.5 0-7.9 0-15.8 0-23.8 0-.2-.1-.4-.2-.5-1-1-2-2-3-3 0 0-.1 0-.2-.1zm0-330.4v31.1c.1 0 .2-.1.2-.1l3-3c.1-.1.2-.3.2-.5 0-7.9 0-15.8 0-23.7 0-.2 0-.3-.1-.5-1.1-1.1-2.1-2.2-3.3-3.3zm0 230.6c.1 0 .2-.1.2-.1l3-3c.1-.1.2-.3.2-.5 0-7.9 0-15.8 0-23.7 0-.2-.1-.5-.3-.7-.9-1-1.8-1.9-2.8-2.8-.1-.1-.2-.2-.3-.2zm0-130.8v31.1c.1 0 .1 0 .2-.1 1-1 2-2 3.1-3.1.1-.1.2-.3.2-.5 0-7.9 0-15.8 0-23.7 0-.2 0-.3-.1-.5-1.2-1-2.2-2.1-3.4-3.2zm11.3 245.2c-1 1-2 2-3 3-.2.2-.3.5-.3.7v23.9c0 .2.1.5.3.7.9.9 1.8 1.8 2.7 2.7l.3.3c-0-10.5-0-20.8-0-31.3zm0-268c0-10.5 0-20.8 0-31.3-1 1-1.9 1.9-2.9 2.9-.3.3-.4.6-.4 1v23.2c0 .7.2 1.2.7 1.7.9.7 1.7 1.5 2.6 2.5zm-.1 99.8c0-10.5 0-20.8 0-31.3-1 1-1.9 1.9-2.9 2.9-.3.3-.4.6-.4 1v22c0 .7-.2 1.5.1 2.1s.9 1 1.4 1.5c.7.5 1.2 1.1 1.8 1.8zm.1 68.4c-1 1-1.8 1.9-2.8 2.8-.4.3-.5.7-.5 1.2v5.8 17.6c0 .4.1.7.4.9l2.2 2.2c.2.2.4.5.6.7 0 0 .1-.1.1-.1-0-10.3-0-20.6-0-31.1zm-4.3-72.6s.1-.1.1-.1c0-7.6 0-15.2 0-22.8-.1 0-.1 0-.2.1-1 1-2 2-2.9 2.9-.1.1-.1.3-.1.5v15.7c0 .2.1.5.3.7.7.8 1.5 1.5 2.2 2.2.2.3.4.5.6.8zm.1-99.8c0-7.7 0-15.3 0-23-.2.2-.3.2-.4.3-.8.9-1.5 1.7-2.4 2.5-.3.3-.5.7-.5 1.1v14.5c0 1 .2 1.7 1 2.3.8.7 1.5 1.5 2.3 2.3zm-.1 199.6s.1-.1.2-.1c0-7.6 0-15.2 0-22.8-.1 0-.1 0-.2.1-1 1-2 2-2.9 2.9-.2.1-.2.3-.2.5v15.8c0 .2.1.4.3.6.6.7 1.2 1.2 1.8 1.9.3.3.7.7 1 1.1zm.1 76.8c-.1 0-.1 0-.2.1-1 1-2 2-2.9 2.9-.1.2-.1.4-.1.6v15.7c0 .2.1.5.3.7.7.8 1.5 1.5 2.2 2.2.2.2.4.5.7.8 0 0 .1-.1.1-.1-.1-7.6-.1-15.2-.1-22.9zm-2.8-145.4v22.7l3-3c.1-.1.2-.3.2-.5 0-5.2 0-10.4 0-15.6 0-.2 0-.3-.2-.5-1-1-1.9-2-3-3.1zm0-99.8v22.6l3-3c.1-.1.2-.3.2-.5 0-5.2 0-10.4 0-15.6 0-.2 0-.3-.2-.5-1-.9-2-1.9-3-3zm-.1 222.2c.1-.1.2-.1.2-.2.9-.9 1.9-1.8 2.8-2.8.1-.1.2-.4.2-.6 0-5.2 0-10.3 0-15.5 0-.2-.1-.5-.3-.7-.8-.9-1.7-1.7-2.6-2.6-.1-.1-.2-.2-.3-.2zm.1-299.3c1.1-1.1 2.1-2 3-3 .1-.1.2-.3.2-.5 0-5.2 0-10.4 0-15.5 0-.2-.1-.5-.3-.7-.7-.7-1.4-1.4-2.2-2.2-.2-.2-.4-.5-.6-.7 0 0-.1.1-.1.1zm-1.3 226.7c-.2.2-.3.2-.3.3-.9.9-1.8 1.7-2.6 2.7-.2.2-.3.5-.3.7v7.4c0 .2.1.5.3.7.8.9 1.8 1.8 2.6 2.7.1.1.2.2.3.3 0-5.1 0-9.9 0-14.8zm0-85.2c0-4.9 0-9.7 0-14.6-.1.1-.2.1-.2.2-1 1-1.9 1.9-2.9 2.9-.1.1-.2.3-.2.5v7.4c0 .2.1.5.3.6.8.9 1.7 1.7 2.6 2.6.1.1.2.2.4.4zm0-114.4c-.1 0-.2.1-.2.1-1 1-2 2-2.9 2.9-.1.1-.2.3-.2.5v7.4c0 .2.1.5.3.7.9.9 1.8 1.8 2.7 2.7.1.1.2.2.3.2 0-4.8 0-9.6 0-14.5zm0 314c0-4.9 0-9.7 0-14.6-.1.1-.2.1-.2.2-1 1-1.9 1.9-2.9 2.9-.1.1-.2.3-.2.5v7.4c0 .2.1.5.3.6.8.9 1.7 1.7 2.6 2.6.1.1.2.2.4.4z"/><path d="m-.1 685.1c0-.4 0-.7 0-1.1.2.1.3.2.5.3l7.7-7.7c-1.2-1.2-2.3-2.3-3.5-3.5-1.3 1.3-2.8 2.8-4.2 4.2-.2-.1-.3-.2-.5-.3 0-.4 0-.8 0-1.2.2.1.3.3.5.3 1.2-1.2 2.4-2.4 3.6-3.6-1.1-1.1-2.3-2.3-3.5-3.5-.2.2-.3.3-.5.5 0-.7 0-1.4 0-2.1.1.1.2.1.4.2 0-.3 0-.4 0-.6 0-2 0-4.1 0-6.1 0-.3-.1-.5-.4-.7 0-.4 0-.7 0-1.1.1 0 .2.1.4.2 0-.2 0-.4 0-.5 0-2 0-4 0-6 0-.3 0-.6-.4-.8 0-.4 0-.7 0-1.1.1 0 .2.1.4.2 0-.2 0-.4 0-.6 0-2 0-4 0-6 0-.3 0-.7-.4-.8 0-.4 0-.7 0-1.1.1 0 .2.1.3.2 0-2.2 0-4.4 0-6.6-.2 0-.2.1-.3.2 0-.7 0-1.3 0-2 .2.2.4.4.6.5 1.2-1.2 2.4-2.4 3.5-3.5-1.3-1.3-2.7-2.7-4-4.2 0-.4 0-.7 0-1.1.1.1.3.2.4.3l4 4c.1.1.2.2.3.3 1.2-1.2 2.4-2.4 3.6-3.6-.3-.3-.7-.6-1-.9-2.4-2.4-4.9-4.9-7.3-7.3 0-.4 0-.7 0-1.1.2.1.3.2.4.3l8.2 8.2c.1.1.2.2.3.3 1.2-1.2 2.4-2.4 3.6-3.5-4.1-4.1-8.3-8.2-12.4-12.4 0-.4 0-.7 0-1.1.2.1.3.2.5.4 4.1 4.1 8.2 8.2 12.3 12.3.1.1.3.2.3.3 1.2-1.2 2.4-2.4 3.5-3.5-5.3-5.3-10.7-10.7-16.1-16.1-.1.1-.3.2-.4.3 0-.4 0-.7 0-1.1 0-.1.1-.3.1-.4 0-2.2 0-4.4 0-6.5 0-.1 0-.3-.1-.4 0-.7 0-1.4 0-2.1.2.2.3.3.5.4l11.9-11.9c-1.1-1.2-2.3-2.3-3.5-3.5-2.7 2.7-5.5 5.5-8.3 8.4-.2-.2-.3-.3-.5-.4 0-.4 0-.7 0-1.1.2.1.3.2.5.3l7.7-7.7c-1.2-1.2-2.3-2.3-3.5-3.5-1.3 1.3-2.8 2.8-4.2 4.2-.2-.1-.3-.2-.5-.3 0-.4 0-.8 0-1.2.2.1.3.3.5.3 1.2-1.2 2.4-2.4 3.6-3.6-1.1-1.1-2.3-2.3-3.5-3.5-.2.2-.3.3-.5.5 0-.7 0-1.4 0-2.1.1.1.2.1.4.2 0-.3 0-.4 0-.6 0-2 0-4.1 0-6.1 0-.3-.1-.5-.4-.7 0-.4 0-.7 0-1.1.1 0 .2.1.4.2 0-.2 0-.4 0-.5 0-2 0-4 0-6 0-.3 0-.6-.4-.8 0-.4 0-.7 0-1.1.1 0 .2.1.4.2 0-.2 0-.4 0-.6 0-2 0-4 0-6 0-.3 0-.7-.4-.8 0-.4 0-.7 0-1.1.1 0 .2.1.3.2 0-2.2 0-4.4 0-6.6-.2 0-.2.1-.3.2 0-.7 0-1.3 0-2 .2.2.4.4.6.5 1.2-1.2 2.4-2.4 3.5-3.5-1.3-1.3-2.7-2.7-4-4.2 0-.4 0-.7 0-1.1.1.1.3.2.4.3l4 4 .3.3c1.2-1.2 2.4-2.4 3.6-3.6-.3-.3-.7-.6-1-.9-2.4-2.4-4.9-4.9-7.3-7.3 0-.4 0-.7 0-1.1.2.1.3.2.4.3 2.7 2.7 5.4 5.4 8.2 8.2.1.1.2.2.3.3 1.2-1.2 2.4-2.4 3.6-3.6-4.1-4.1-8.3-8.2-12.4-12.4 0-.4 0-.7 0-1.1.2.1.3.2.5.4 4.1 4.1 8.2 8.2 12.3 12.3.1.1.3.2.3.3 1.2-1.2 2.4-2.4 3.5-3.5-5.3-5.3-10.7-10.7-16.1-16.1-.1.1-.3.2-.4.3 0-.4 0-.7 0-1.1 0-.1.1-.3.1-.4 0-2.2 0-4.4 0-6.5 0-.1 0-.3-.1-.4 0-.7 0-1.4 0-2.1.2.2.3.3.5.4 4-4 8-8 11.9-11.9-1.1-1.2-2.3-2.3-3.5-3.5-2.7 2.7-5.5 5.5-8.3 8.4-.2-.2-.3-.3-.5-.4 0-.4 0-.7 0-1.1.2.1.3.2.5.3l7.7-7.7c-1.2-1.2-2.3-2.3-3.5-3.5-1.3 1.3-2.8 2.8-4.2 4.2-.2-.1-.3-.2-.5-.3 0-.4 0-.8 0-1.2.2.1.3.3.5.3 1.2-1.2 2.4-2.4 3.6-3.6-1.1-1.1-2.3-2.3-3.5-3.5-.2.2-.3.3-.5.5 0-.7 0-1.4 0-2.1.1.1.2.1.4.2 0-.3 0-.4 0-.6 0-2 0-4.1 0-6.1 0-.3-.1-.5-.4-.7 0-.4 0-.7 0-1.1.1 0 .2.1.4.2 0-.2 0-.4 0-.5 0-2 0-4 0-6 0-.3 0-.6-.4-.8 0-.4 0-.7 0-1.1.1 0 .2.1.4.2 0-.2 0-.4 0-.6 0-2 0-4 0-6 0-.3 0-.7-.4-.8 0-.4 0-.7 0-1.1.1 0 .2.1.3.2 0-2.2 0-4.4 0-6.6-.2 0-.2.1-.3.2 0-.7 0-1.3 0-2 .2.2.4.4.6.5 1.2-1.2 2.4-2.4 3.5-3.5-1.3-1.3-2.7-2.7-4-4.2 0-.4 0-.7 0-1.1.1.1.3.2.4.3l4 4c.1.1.2.2.3.3 1.2-1.2 2.4-2.4 3.6-3.6-.3-.3-.7-.6-1-.9-2.4-2.4-4.9-4.9-7.3-7.3 0-.4 0-.7 0-1.1.2.1.3.2.4.3l8.2 8.2.3.3c1.2-1.2 2.4-2.4 3.6-3.5-4.1-4.1-8.3-8.2-12.4-12.4 0-.4 0-.7 0-1.1.2.1.3.2.5.4l12.3 12.3c.1.1.3.2.3.3l3.5-3.5c-5.3-5.3-10.7-10.7-16.1-16.1-.1.1-.3.2-.4.3 0-1 0-2.1 0-3.2h.9v1.6c0 .2.1.5.3.7.9.9 1.8 1.8 2.7 2.7.1.1.2.2.3.3 0-1.8 0-3.5 0-5.2h.8v5.8c0 .2.1.5.2.6.9.9 1.8 1.8 2.7 2.7.1.1.2.1.3.2 0-1.3 0-2.5 0-3.6 0-1.9 0-3.8 0-5.7h.8v10c0 .2.1.4.2.5.9.9 1.8 1.8 2.7 2.7.1.1.2.1.3.2 0-.3 0-.5 0-.7 0-4.1 0-8.2 0-12.3 0-.2 0-.4 0-.6h.7v.7 13.3c0 .2 0 .5.2.7l3.3 3.3v2.1c-1 1-1.9 2-2.9 3.1l2.9 2.9v1.1c-.7-.7-1.4-1.3-2.1-2-.5-.5-1-1-1.4-1.4-1.2 1.2-2.4 2.4-3.5 3.5 0 0 .1.1.2.2 2.2 2.2 4.4 4.4 6.6 6.6.1.1.2.1.3.2v1.2c-.1-.1-.3-.2-.4-.3-2.3-2.3-4.6-4.6-6.9-6.9-.2-.2-.2-.3-.3-.4-1.3 1.3-2.4 2.5-3.6 3.6 0 0 .1.1.2.2 3.6 3.6 7.2 7.2 10.7 10.7.1.1.2.2.3.2v1.2c-.2-.2-.3-.3-.4-.4-3.7-3.7-7.3-7.3-11-11-.2-.2-.3-.3-.3-.3-1.2 1.2-2.4 2.4-3.5 3.5.1.1.2.2.3.3 3.7 3.7 7.3 7.3 11 11 1.3 1.3 2.7 2.7 4 4v1.1c-.1-.1-.3-.2-.4-.3-2.2-2.2-4.3-4.3-6.5-6.5-.1-.1-.2-.3-.2-.5 0 0-.1.1-.2.2v14.3s.1 0 .1.1c.1-.1.2-.3.3-.4l6.4-6.4c.1-.1.3-.2.4-.3v1.1c-.2.2-.3.3-.4.4-2.5 2.5-5 5-7.5 7.5-2.4 2.4-4.7 4.7-7.1 7.1-.1.1-.2.3-.3.3 1.2 1.2 2.4 2.4 3.6 3.6.1-.2.2-.3.3-.5 3.7-3.7 7.3-7.4 11-11 .1-.1.3-.2.4-.3v1.2c-.1.1-.2.2-.3.3-3.5 3.5-7.1 7.1-10.6 10.6-.1.1-.2.2-.3.3l3.5 3.5c.1-.1.2-.2.4-.3l6.9-6.9c.1-.1.3-.2.4-.3v1.2c-.1.1-.2.2-.3.2-2.2 2.2-4.4 4.4-6.6 6.6-.1.1-.2.2-.2.2 1.2 1.2 2.4 2.4 3.5 3.5l2.7-2.7c.3-.3.5-.5.8-.7v1.1c-1 1-2 2-2.9 2.9 1 1 2 2 2.9 3v1.1c-.1-.1-.3-.2-.4-.3-.9-.9-1.8-1.8-2.7-2.7-.1-.1-.2-.2-.4-.3v.7 17.7 13.6c0 .2 0 .5.2.7 1.1 1.1 2.2 2.2 3.3 3.3v2.1c-1 1-1.9 2-2.9 3.1l2.9 2.9v1.1c-.7-.7-1.4-1.3-2.1-2-.5-.5-1-1-1.4-1.4-1.2 1.2-2.4 2.4-3.5 3.5 0 0 .1.1.2.2 2.2 2.2 4.4 4.4 6.6 6.6.1.1.2.1.3.2v1.2c-.1-.1-.3-.2-.4-.3-2.3-2.3-4.6-4.6-6.9-6.9-.2-.2-.2-.3-.3-.4-1.3 1.3-2.4 2.5-3.6 3.6 0 0 .1.1.2.2l10.7 10.7c.1.1.2.2.3.2v1.2c-.2-.2-.3-.3-.4-.4-3.7-3.7-7.3-7.3-11-11-.2-.2-.3-.3-.3-.3-1.2 1.2-2.4 2.4-3.5 3.5l.3.3c3.7 3.7 7.3 7.3 11 11 1.3 1.3 2.7 2.7 4 4v1.1c-.1-.1-.3-.2-.4-.3-2.2-2.2-4.3-4.3-6.5-6.5-.1-.1-.2-.3-.2-.5 0 0-.1.1-.2.2v14.3h.1c.1-.1.2-.2.3-.3 2.2-2.2 4.3-4.3 6.4-6.4.1-.1.3-.2.4-.3v1.1c-.2.2-.3.3-.4.4-2.5 2.5-5 5-7.5 7.5-2.4 2.4-4.7 4.7-7.1 7.1-.1.1-.2.3-.3.3 1.2 1.2 2.4 2.4 3.6 3.6.1-.2.2-.3.3-.5 3.7-3.7 7.3-7.4 11-11 .1-.1.3-.2.4-.3v1.2c-.1.1-.2.2-.3.3-3.5 3.5-7.1 7.1-10.6 10.6-.1.1-.2.2-.3.3 1.2 1.2 2.4 2.4 3.5 3.5.1-.1.2-.2.4-.3 2.3-2.3 4.6-4.6 6.9-6.9.1-.1.3-.2.4-.3v1.2c-.1.1-.2.2-.3.2-2.2 2.2-4.4 4.4-6.6 6.6-.1.1-.2.2-.2.2 1.2 1.2 2.4 2.4 3.5 3.5l2.7-2.7c.3-.3.5-.5.8-.7v1.1c-1 1-2 2-2.9 2.9 1 1 2 2 2.9 3v1.1c-.1-.1-.3-.2-.4-.3-.9-.9-1.8-1.8-2.7-2.7-.1-.1-.2-.2-.4-.3v.7 17.7 13.6c0 .2 0 .5.2.7 1.1 1.1 2.2 2.2 3.3 3.3v2.1c-1 1-1.9 2-2.9 3.1.9.9 1.9 1.9 2.9 2.9v1.1c-.7-.7-1.4-1.3-2.1-2-.5-.5-1-1-1.4-1.4-1.2 1.2-2.4 2.4-3.5 3.5 0 0 .1.1.2.2 2.2 2.2 4.4 4.4 6.6 6.6.1.1.2.1.3.2v1.2c-.1-.1-.3-.2-.4-.3-2.3-2.3-4.6-4.6-6.9-6.9-.2-.2-.2-.3-.3-.4-1.3 1.3-2.4 2.5-3.6 3.6 0 0 .1.1.2.2l10.7 10.7c.1.1.2.2.3.2v1.2c-.2-.2-.3-.3-.4-.4-3.7-3.7-7.3-7.3-11-11-.2-.2-.3-.3-.3-.3-1.2 1.2-2.4 2.4-3.5 3.5l.3.3c3.7 3.7 7.3 7.3 11 11 1.3 1.3 2.7 2.7 4 4v1.1c-.1-.1-.3-.2-.4-.3-2.2-2.2-4.3-4.3-6.5-6.5-.1-.1-.2-.3-.2-.5 0 0-.1.1-.2.2v14.4c.2-.2.3-.3.4-.4 2.2-2.2 4.3-4.3 6.4-6.4.1-.1.3-.2.4-.3v1.1c-.2.2-.3.3-.4.4-2.5 2.5-5 5-7.5 7.5-2.4 2.4-4.7 4.7-7.1 7.1-.1.1-.2.3-.3.3 1.2 1.2 2.4 2.4 3.6 3.6.1-.2.2-.3.3-.5 3.7-3.7 7.3-7.4 11-11 .1-.1.3-.2.4-.3v1.2c-.1.1-.2.2-.3.3-3.5 3.5-7.1 7.1-10.6 10.6-.1.1-.2.2-.3.3 1.2 1.2 2.4 2.4 3.5 3.5.1-.1.2-.2.4-.3 2.3-2.3 4.6-4.6 6.9-6.9.1-.1.3-.2.4-.3v1.2c-.1.1-.2.2-.3.2-2.2 2.2-4.4 4.4-6.6 6.6-.1.1-.2.2-.2.2 1.2 1.2 2.4 2.4 3.5 3.5l2.7-2.7c.3-.3.5-.5.8-.7v1.1c-1 1-2 2-2.9 2.9 1 1 2 2 2.9 3v1.1c-.1-.1-.3-.2-.4-.3-.9-.9-1.8-1.8-2.7-2.7-.1-.1-.2-.2-.4-.3v.7 17.7 13.6c0 .2 0 .5.2.7 1.1 1.1 2.2 2.2 3.3 3.3v2.1c-1 1-1.9 2-2.9 3.1.9.9 1.9 1.9 2.9 2.9v1.1c-.7-.7-1.4-1.3-2.1-2-.5-.5-1-1-1.4-1.4-1.2 1.2-2.4 2.4-3.5 3.5 0 0 .1.1.2.2 2.2 2.2 4.4 4.4 6.6 6.6.1.1.2.1.3.2v1.2c-.1-.1-.3-.2-.4-.3-2.3-2.3-4.6-4.6-6.9-6.9-.2-.2-.2-.3-.3-.4-1.3 1.3-2.4 2.5-3.6 3.6 0 0 .1.1.2.2l10.7 10.7c.1.1.2.2.3.2v1.2c-.2-.2-.3-.3-.4-.4-3.7-3.7-7.3-7.3-11-11-.2-.2-.3-.3-.3-.3-1.2 1.2-2.4 2.4-3.5 3.5l.3.3c3.7 3.7 7.3 7.3 11 11 1.3 1.3 2.7 2.7 4 4v1.1c-.1-.1-.3-.2-.4-.3-2.2-2.2-4.3-4.3-6.5-6.5-.1-.1-.2-.3-.2-.5 0 0-.1.1-.2.2v14.3s.1 0 .1.1c.1-.1.2-.3.3-.4 2.2-2.2 4.3-4.3 6.4-6.4.1-.1.3-.2.4-.3v1.1c-.2.2-.3.3-.4.4-2.5 2.5-5 5-7.5 7.5-2.4 2.4-4.7 4.7-7.1 7.1-.1.1-.2.3-.3.3 1.2 1.2 2.4 2.4 3.6 3.6.1-.2.2-.3.3-.5 3.7-3.7 7.3-7.4 11-11 .1-.1.3-.2.4-.3v1.2c-.1.1-.2.2-.3.3-3.5 3.5-7.1 7.1-10.6 10.6-.1.1-.2.2-.3.3l3.5 3.5c.1-.1.2-.2.4-.3l6.9-6.9c.1-.1.3-.2.4-.3v1.2c-.1.1-.2.2-.3.2-2.2 2.2-4.4 4.4-6.6 6.6-.1.1-.2.2-.2.2 1.2 1.2 2.4 2.4 3.5 3.5l2.7-2.7c.3-.3.5-.5.8-.7v1.1c-1 1-2 2-2.9 2.9 1 1 2 2 2.9 3v1.1c-.1-.1-.3-.2-.4-.3-.9-.9-1.8-1.8-2.7-2.7-.1-.1-.2-.2-.4-.3v.7 17.7 13.6c0 .2 0 .5.2.7 1.1 1.1 2.2 2.2 3.3 3.3v2.1c-1 1-1.9 2-2.9 3.1l2.9 2.9v1.1c-.7-.7-1.4-1.3-2.1-2-.5-.5-1-1-1.4-1.4-1.2 1.2-2.4 2.4-3.5 3.5 0 0 .1.1.2.2 2.2 2.2 4.4 4.4 6.6 6.6.1.1.2.1.3.2v1.2c-.1-.1-.3-.2-.4-.3-2.3-2.3-4.6-4.6-6.9-6.9-.2-.2-.2-.3-.3-.4-1.3 1.3-2.4 2.5-3.6 3.6 0 0 .1.1.2.2l10.7 10.7c.1.1.2.2.3.2v1.2c-.2-.2-.3-.3-.4-.4-3.7-3.7-7.3-7.3-11-11-.2-.2-.2-.3-.3-.4-1.3 1.3-2.4 2.4-3.7 3.7l.3.3 7.7 7.7c.1.1.2.3.3.4-.4 0-.8 0-1.2 0-.1-.1-.2-.3-.3-.4-.8-.8-1.6-1.6-2.4-2.4-.1-.2-.2-.3-.3-.5-.1 0-.2.1-.2.2v3.2c-.3 0-.5 0-.8 0 0-1.3 0-2.5 0-3.8 0-.2-.1-.5-.2-.6-1-1-1.9-2-2.9-2.9-.2-1.8-.2-1.8-.4-1.9v.6 6.9c-.4 0-.8 0-1.2 0 0-.4 0-.8 0-1.3.1 0 .2.1.3.2 0-2.2 0-4.4 0-6.6-.2 0-.2.1-.3.2 0-.7 0-1.3 0-2 .2.2.4.4.6.5l3.5-3.5c-1.3-1.3-2.7-2.7-4-4.2 0-.4 0-.7 0-1.1.1.1.3.2.4.3 1.3 1.3 2.7 2.7 4 4l.3.3 3.6-3.6c-.3-.3-.7-.6-1-.9-2.4-2.4-4.9-4.9-7.3-7.3 0-.4 0-.7 0-1.1.2.1.3.2.4.3 2.7 2.7 5.4 5.4 8.2 8.2.1.1.2.2.3.3l3.6-3.6c-4.1-4.1-8.3-8.2-12.4-12.4 0-.4 0-.7 0-1.1.2.1.3.2.5.4 4.1 4.1 8.2 8.2 12.3 12.3.1.1.3.2.3.3 1.2-1.2 2.4-2.4 3.5-3.5-5.3-5.3-10.7-10.7-16.1-16.1-.1.1-.3.2-.4.3 0-.4 0-.7 0-1.1 0-.1.1-.3.1-.4 0-2.2 0-4.4 0-6.5 0-.1 0-.3-.1-.4 0-.7 0-1.4 0-2.1.2.2.3.3.5.4l11.9-11.9c-1.1-1.2-2.3-2.3-3.5-3.5-2.7 2.7-5.5 5.5-8.3 8.4-.2-.2-.3-.3-.5-.4 0-.4 0-.7 0-1.1.2.1.3.2.5.3l7.7-7.7c-1.2-1.2-2.3-2.3-3.5-3.5-1.3 1.3-2.8 2.8-4.2 4.2-.2-.1-.3-.2-.5-.3 0-.4 0-.8 0-1.2.2.1.3.3.5.3 1.2-1.2 2.4-2.4 3.6-3.6-1.1-1.1-2.3-2.3-3.5-3.5-.2.2-.3.3-.5.5 0-.7 0-1.4 0-2.1.1.1.2.1.4.2 0-.3 0-.4 0-.6 0-2 0-4.1 0-6.1 0-.3-.1-.5-.4-.7 0-.4 0-.7 0-1.1.1 0 .2.1.4.2 0-.2 0-.4 0-.5 0-2 0-4 0-6 0-.3 0-.6-.4-.8 0-.4 0-.7 0-1.1.1 0 .2.1.4.2 0-.2 0-.4 0-.6 0-2 0-4 0-6 0-.3 0-.7-.4-.8 0-.4 0-.7 0-1.1.1 0 .2.1.3.2 0-2.2 0-4.4 0-6.6-.2 0-.2.1-.3.2 0-.7 0-1.3 0-2 .2.2.4.4.6.5l3.5-3.5c-1.3-1.3-2.7-2.7-4-4.2 0-.4 0-.7 0-1.1.1.1.3.2.4.3 1.3 1.3 2.7 2.7 4 4 .1.1.2.2.3.3l3.6-3.6c-.3-.3-.7-.6-1-.9-2.4-2.4-4.9-4.9-7.3-7.3 0-.4 0-.7 0-1.1.2.1.3.2.4.3 2.7 2.7 5.4 5.4 8.2 8.2l.3.3c1.2-1.2 2.4-2.4 3.6-3.5-4.1-4.1-8.3-8.2-12.4-12.4 0-.4 0-.7 0-1.1.2.1.3.2.5.4 4.1 4.1 8.2 8.2 12.3 12.3.1.1.3.2.3.3 1.2-1.2 2.4-2.4 3.5-3.5-6.1-5.8-11.5-11.2-16.9-16.5-.1.1-.3.2-.4.3 0-.4 0-.7 0-1.1 0-.1.1-.3.1-.4 0-2.2 0-4.4 0-6.5 0-.1 0-.3-.1-.4 0-.7 0-1.4 0-2.1.2.2.3.3.5.4l11.9-11.9c-1.2-1.2-2.3-2.3-3.5-3.5-2.7 2.7-5.5 5.5-8.3 8.4-1.2-.5-1.4-.7-1.5-.8zm1.2 82c.1 0 .1 0 .2-.1l3-3c.1-.1.2-.3.2-.5 0-7.9 0-15.8 0-23.8 0-.2-.1-.4-.2-.5-1-1-2-2-3-3 0 0-.1 0-.2-.1zm0-330.5v31.1c.1 0 .2-.1.2-.1l3-3c.1-.1.2-.3.2-.5 0-7.9 0-15.8 0-23.7 0-.2 0-.3-.1-.5-1.1-1.1-2.1-2.1-3.3-3.3zm0 230.7c.1 0 .2-.1.2-.1l3-3c.1-.1.2-.3.2-.5 0-7.9 0-15.8 0-23.7 0-.2-.1-.5-.3-.7-.9-1-1.8-1.9-2.8-2.8-.1-.1-.2-.2-.3-.2zm0-130.9v31.1c.1 0 .1 0 .2-.1 1-1 2-2 3.1-3.1.1-.1.2-.3.2-.5 0-7.9 0-15.8 0-23.7 0-.2 0-.3-.1-.5-1.2-1-2.2-2-3.4-3.2zm11.3 245.3c-1 1-2 2-3 3-.2.2-.3.5-.3.7v23.9c0 .2.1.5.3.7l2.7 2.7.3.3c-0-10.5-0-20.9-0-31.3zm0-268.1c0-10.5 0-20.8 0-31.3-1 1-1.9 1.9-2.9 2.9-.3.3-.4.6-.4 1v23.2c0 .7.2 1.2.7 1.7.9.7 1.7 1.6 2.6 2.5zm-.1 99.8c0-10.5 0-20.8 0-31.3-1 1-1.9 1.9-2.9 2.9-.3.3-.4.6-.4 1v22c0 .7-.2 1.5.1 2.1s.9 1 1.4 1.5c.7.6 1.2 1.2 1.8 1.8zm.1 68.5c-1 1-1.8 1.9-2.8 2.8-.4.3-.5.7-.5 1.2v5.8 17.6c0 .4.1.7.4.9.7.7 1.5 1.5 2.2 2.2.2.2.4.5.6.7 0 0 .1-.1.1-.1-0-10.3-0-20.7-0-31.1zm-4.3-72.7s.1-.1.1-.1c0-7.6 0-15.2 0-22.8-.1 0-.1 0-.2.1-1 1-2 2-2.9 2.9-.1.1-.1.4-.1.5v15.7c0 .2.1.5.3.7.7.8 1.5 1.5 2.2 2.2.2.3.4.6.6.8zm.1-99.7c0-7.7 0-15.3 0-23-.2.2-.3.2-.4.3-.8.8-1.6 1.6-2.4 2.4-.3.3-.5.7-.5 1.1v14.5c0 1 .2 1.7 1 2.3.8.8 1.5 1.5 2.3 2.4zm-.1 199.5s.1-.1.2-.1c0-7.6 0-15.2 0-22.8-.1 0-.1 0-.2.1-1 1-2 2-2.9 2.9-.2.2-.2.4-.2.5v15.8c0 .2.1.4.3.6.6.7 1.2 1.2 1.8 1.9.3.4.7.7 1 1.1zm.1 76.9c-.1 0-.1 0-.2.1-1 1-2 2-2.9 2.9-.1.1-.1.4-.1.5v15.7c0 .2.1.5.3.7.7.8 1.5 1.5 2.2 2.2.2.2.4.5.7.8 0 0 .1-.1.1-.1-.1-7.6-.1-15.2-.1-22.8zm-2.8-145.5v22.7l3-3c.1-.1.2-.3.2-.5 0-5.2 0-10.4 0-15.6 0-.2 0-.3-.2-.5-1-1-1.9-2-3-3.1zm0-99.7v22.6l3-3c.1-.1.2-.3.2-.5 0-5.2 0-10.4 0-15.6 0-.2 0-.3-.2-.5-1-1-2-2-3-3zm-.1 222.2c.1-.1.2-.1.2-.2.9-.9 1.9-1.8 2.8-2.8.1-.1.2-.4.2-.6 0-5.2 0-10.3 0-15.5 0-.2-.1-.5-.3-.7-.8-.9-1.7-1.7-2.6-2.6-.1-.1-.2-.2-.3-.2zm.1-299.4c1.1-1.1 2.1-2 3-3 .1-.1.2-.3.2-.5 0-5.2 0-10.4 0-15.5 0-.2-.1-.5-.3-.7-.7-.7-1.4-1.4-2.2-2.2-.2-.2-.4-.5-.6-.7 0 0-.1.1-.1.1zm-1.3 226.7c-.2.2-.3.2-.3.3-.9.9-1.8 1.7-2.6 2.7-.2.2-.3.5-.3.7v7.4c0 .2.1.5.3.7.8.9 1.8 1.8 2.6 2.7l.3.3c0-5.1 0-9.9 0-14.8zm0-85.1c0-4.9 0-9.7 0-14.6-.1.1-.2.1-.2.2-1 1-1.9 1.9-2.9 2.9-.1.1-.2.3-.2.5v7.4c0 .2.1.5.3.6.8.9 1.7 1.7 2.6 2.6.1.1.2.2.4.4zm0-114.4c-.1 0-.2.1-.2.1-1 1-2 2-2.9 2.9-.1.1-.2.3-.2.5v7.4c0 .2.1.5.3.7.9.9 1.8 1.8 2.7 2.7.1.1.2.2.3.2 0-4.8 0-9.6 0-14.5zm0 313.9c0-4.9 0-9.7 0-14.6-.1.1-.2.1-.2.2-1 1-1.9 1.9-2.9 2.9-.1.1-.2.3-.2.5v7.4c0 .2.1.5.3.6.8.9 1.7 1.7 2.6 2.6.1.1.2.2.4.4z"/></g></svg>